<?xml version="1.0" encoding="iso-8859-1"?>
<!-- Uploaded to: SVG Repo, www.svgrepo.com, Generator: SVG Repo Mixer Tools -->
<svg height="800px" width="800px" version="1.1" id="Layer_1" xmlns="http://www.w3.org/2000/svg" xmlns:xlink="http://www.w3.org/1999/xlink" 
	 viewBox="0 0 512 512" xml:space="preserve">
<circle cx="256" cy="256" r="256"/>
<g>
	<path style="fill:#F33052;" d="M133.376,201.328v74.784c0,13.92-2.304,23.152-6.912,27.712c-4.608,4.544-13.968,6.832-28.096,6.832
		c-15.04,0-24.8-2.208-29.264-6.592s-6.704-14-6.704-28.816l0.24-8.032h19.616c0.32,4.032,0.48,7.04,0.48,9.056
		c0,1.904,0.08,4.208,0.24,6.912c0.32,6.56,5.536,9.84,15.648,9.84c6.032,0,9.904-1.184,11.632-3.536
		c1.712-2.352,2.576-7.664,2.576-15.92v-72.256h20.544V201.328z"/>
	<path style="fill:#F33052;" d="M218.016,288.912h-46.768l-6.752,20.8h-21.744l36.032-108.368h30.896l36.592,108.368h-21.344
		L218.016,288.912z M213.248,273.744l-18.736-56.448l-18.4,56.448H213.248z"/>
	<path style="fill:#F33052;" d="M325.04,201.328h21.744L311.84,309.696h-31.6l-34.608-108.368h21.344l20.336,61.376
		c1.904,5.872,4.736,15.712,8.496,29.536h0.544l2.064-7.392c2.544-9.2,4.72-16.56,6.512-22.064L325.04,201.328z"/>
	<path style="fill:#F33052;" d="M421.328,288.912H374.56l-6.752,20.8h-21.744l36.048-108.368h30.88l36.592,108.368H428.24
		L421.328,288.912z M416.576,273.744l-18.736-56.448l-18.416,56.448H416.576z"/>
</g>
</svg>